<?xml version="1.0" standalone="no"?>
<!DOCTYPE svg PUBLIC "-//W3C//DTD SVG 20010904//EN"
 "http://www.w3.org/TR/2001/REC-SVG-20010904/DTD/svg10.dtd">
<svg version="1.0" xmlns="http://www.w3.org/2000/svg"
 width="16.000000pt" height="16.000000pt" viewBox="0 0 16.000000 16.000000"
 preserveAspectRatio="xMidYMid meet">
<metadata>
Created by potrace 1.11, written by Peter Selinger 2001-2013
</metadata>
<g transform="translate(0.000000,16.000000) scale(0.006154,-0.006154)"
fill="#000000" stroke="none">
<path d="M1275 2461 c-10 -9 -384 -225 -530 -306 -38 -21 -86 -47 -105 -58
-19 -11 -55 -31 -80 -45 -25 -13 -49 -28 -55 -32 -5 -4 -41 -25 -80 -45 -38
-21 -87 -49 -107 -62 l-38 -23 -2 -577 c-2 -373 1 -581 7 -589 6 -8 57 -40
115 -72 58 -32 141 -79 185 -104 510 -291 713 -403 725 -402 14 0 414 222 550
304 25 15 143 83 263 151 l217 123 0 583 0 583 -37 24 c-48 30 -884 506 -940
535 -45 23 -73 26 -88 12z m-751 -848 c9 -33 25 -128 31 -188 14 -143 28 -146
46 -10 6 50 17 117 24 150 l12 60 77 3 77 3 -1 -258 c-1 -345 -2 -319 11 -306
5 5 15 55 20 109 6 54 22 178 37 274 l27 175 82 3 c71 2 82 1 87 -15 9 -30 45
-271 56 -378 24 -230 35 -190 35 128 l0 262 75 3 c95 4 141 -9 185 -55 40 -41
55 -37 37 9 -6 17 -9 35 -6 39 8 14 121 11 127 -3 2 -7 12 -78 21 -158 25
-209 26 -217 36 -200 4 8 13 60 19 116 7 55 17 134 24 175 l13 74 169 0 170 0
3 -49 c4 -59 -6 -71 -61 -71 l-42 0 0 -75 0 -75 50 -5 50 -5 0 -55 0 -55 -49
-5 -50 -5 -1 -72 c-1 -46 3 -74 9 -75 6 0 29 -2 51 -2 l40 -1 3 -57 c2 -36 -1
-58 -8 -59 -5 0 -53 0 -105 0 -52 0 -99 0 -105 0 -6 1 -10 102 -10 283 0 165
-4 278 -9 272 -5 -5 -16 -67 -25 -139 -21 -167 -60 -403 -69 -412 -12 -11
-127 -10 -137 1 -10 13 -60 293 -60 338 0 39 -17 35 -35 -9 -9 -21 -25 -47
-35 -58 -20 -21 -19 -22 20 -145 21 -68 37 -126 35 -128 -2 -3 -27 -6 -55 -7
-62 -3 -71 7 -95 110 -21 90 -32 118 -48 112 -9 -3 -11 -32 -9 -109 3 -81 1
-106 -10 -109 -11 -4 -172 -4 -215 0 -7 1 -13 12 -13 25 0 14 -4 37 -10 51 -9
23 -15 26 -52 23 -42 -3 -43 -4 -51 -48 -5 -25 -13 -47 -17 -50 -12 -8 -219
-4 -227 4 -4 4 -6 66 -5 139 3 159 -10 154 -35 -15 -18 -123 -28 -144 -66
-134 -23 5 -25 13 -43 136 -11 74 -23 129 -29 128 -6 -2 -9 -51 -6 -130 2 -71
-1 -128 -5 -129 -51 -6 -101 -4 -111 3 -9 8 -12 89 -12 331 1 177 3 325 6 330
2 4 37 7 78 7 62 0 74 -3 79 -17z m1646 -263 l5 -275 50 0 50 0 3 -48 c2 -27
-2 -54 -7 -61 -11 -13 -196 -17 -216 -4 -7 4 -10 123 -9 330 1 177 2 327 3
331 0 4 27 7 59 5 l57 -3 5 -275z"/>
<path d="M1269 1503 c-3 -34 1 -206 5 -210 9 -10 46 19 61 47 22 42 19 92 -8
131 -21 31 -56 51 -58 32z"/>
<path d="M956 1353 c-4 -38 -9 -94 -12 -125 -4 -50 -3 -57 16 -63 35 -11 41 2
35 78 -11 140 -17 177 -25 177 -5 0 -11 -30 -14 -67z"/>
</g>
</svg>
